Altinn-DIN-Italic.ufo
<glyph name="dollar" format="2">
  <advance width="467"/>
  <unicode hex="0024"/>
  <outline>
    <contour>
      <point x="392" y="499" type="line"/>
      <point x="394" y="519"/>
      <point x="394" y="528" type="qcurve" smooth="yes"/>
      <point x="394" y="595"/>
      <point x="337" y="610" type="qcurve"/>
      <point x="290" y="386" type="line"/>
      <point x="301" y="384" type="line" smooth="yes"/>
      <point x="416" y="361"/>
      <point x="416" y="260" type="qcurve" smooth="yes"/>
      <point x="416" y="232"/>
      <point x="411" y="211" type="qcurve" smooth="yes"/>
      <point x="392" y="130"/>
      <point x="291" y="36"/>
      <point x="214" y="29" type="qcurve"/>
      <point x="195" y="-60" type="line"/>
      <point x="135" y="-60" type="line"/>
      <point x="155" y="30" type="line"/>
      <point x="92" y="37"/>
      <point x="22" y="109"/>
      <point x="22" y="171" type="qcurve" smooth="yes"/>
      <point x="22" y="191"/>
      <point x="25" y="214" type="qcurve"/>
      <point x="95" y="214" type="line"/>
      <point x="93" y="194"/>
      <point x="93" y="186" type="qcurve" smooth="yes"/>
      <point x="93" y="108"/>
      <point x="168" y="93" type="qcurve"/>
      <point x="218" y="329" type="line"/>
      <point x="206" y="331" type="line" smooth="yes"/>
      <point x="150" y="343"/>
      <point x="91" y="400"/>
      <point x="91" y="451" type="qcurve" smooth="yes"/>
      <point x="91" y="477"/>
      <point x="96" y="498" type="qcurve" smooth="yes"/>
      <point x="114" y="578"/>
      <point x="217" y="671"/>
      <point x="292" y="676" type="qcurve"/>
      <point x="309" y="759" type="line"/>
      <point x="369" y="759" type="line"/>
      <point x="350" y="674" type="line"/>
      <point x="403" y="665"/>
      <point x="465" y="596"/>
      <point x="465" y="536" type="qcurve" smooth="yes"/>
      <point x="465" y="512"/>
      <point x="463" y="499" type="qcurve"/>
    </contour>
    <contour>
      <point x="232" y="398" type="qcurve"/>
      <point x="278" y="611" type="line"/>
      <point x="235" y="605"/>
      <point x="177" y="548"/>
      <point x="169" y="503" type="qcurve" smooth="yes"/>
      <point x="165" y="480"/>
      <point x="165" y="472" type="qcurve" smooth="yes"/>
      <point x="164" y="413"/>
    </contour>
    <contour>
      <point x="309" y="307"/>
      <point x="274" y="315" type="qcurve"/>
      <point x="227" y="93" type="line"/>
      <point x="272" y="100"/>
      <point x="326" y="157"/>
      <point x="338" y="206" type="qcurve" smooth="yes"/>
      <point x="342" y="223"/>
      <point x="342" y="241" type="qcurve" smooth="yes"/>
      <point x="342" y="271"/>
    </contour>
    <contour>
      <point x="186" y="706" type="move" smooth="yes"/>
    </contour>
  </outline>
</glyph>
<glyph name="ampersand" format="2">
  <advance width="614"/>
  <unicode hex="0026"/>
  <outline>
    <contour>
      <point x="477" y="67"/>
      <point x="489" y="67" type="qcurve" smooth="yes"/>
      <point x="513" y="67" type="line"/>
      <point x="499" y="0" type="line"/>
      <point x="464" y="0" type="line" smooth="yes"/>
      <point x="437" y="0"/>
      <point x="409" y="19"/>
      <point x="395" y="46" type="qcurve" smooth="yes"/>
      <point x="376" y="86" type="line"/>
      <point x="325" y="35"/>
      <point x="230" y="-10"/>
      <point x="179" y="-10" type="qcurve" smooth="yes"/>
      <point x="112" y="-10"/>
      <point x="39" y="68"/>
      <point x="39" y="133" type="qcurve" smooth="yes"/>
      <point x="39" y="202"/>
      <point x="124" y="319"/>
      <point x="226" y="393" type="qcurve"/>
      <point x="198" y="450"/>
      <point x="175" y="518"/>
      <point x="175" y="547" type="qcurve" smooth="yes"/>
      <point x="175" y="595"/>
      <point x="220" y="673"/>
      <point x="298" y="717"/>
      <point x="345" y="717" type="qcurve" smooth="yes"/>
      <point x="405" y="717"/>
      <point x="478" y="652"/>
      <point x="478" y="597" type="qcurve" smooth="yes"/>
      <point x="478" y="540"/>
      <point x="404" y="446"/>
      <point x="311" y="380" type="qcurve"/>
      <point x="399" y="198" type="line"/>
      <point x="498" y="299" type="line"/>
      <point x="538" y="257" type="line"/>
      <point x="427" y="140" type="line"/>
      <point x="450" y="94" type="line" smooth="yes"/>
      <point x="457" y="81"/>
    </contour>
    <contour>
      <point x="247" y="600"/>
      <point x="247" y="557" type="qcurve" smooth="yes"/>
      <point x="247" y="537"/>
      <point x="263" y="483"/>
      <point x="285" y="435" type="qcurve"/>
      <point x="335" y="471"/>
      <point x="386" y="518"/>
      <point x="409" y="562"/>
      <point x="409" y="591" type="qcurve" smooth="yes"/>
      <point x="409" y="620"/>
      <point x="371" y="655"/>
      <point x="339" y="655" type="qcurve" smooth="yes"/>
      <point x="299" y="655"/>
    </contour>
    <contour>
      <point x="299" y="95"/>
      <point x="348" y="143" type="qcurve"/>
      <point x="253" y="338" type="line"/>
      <point x="175" y="281"/>
      <point x="111" y="194"/>
      <point x="111" y="142" type="qcurve" smooth="yes"/>
      <point x="111" y="102"/>
      <point x="156" y="55"/>
      <point x="196" y="55" type="qcurve" smooth="yes"/>
      <point x="231" y="55"/>
    </contour>
  </outline>
</glyph>
<glyph name="parenleft" format="2">
  <advance width="295"/>
  <unicode hex="0028"/>
  <outline>
    <contour>
      <point x="59" y="173" type="qcurve" smooth="yes"/>
      <point x="59" y="252"/>
      <point x="77" y="336" type="qcurve" smooth="yes"/>
      <point x="123" y="557"/>
      <point x="288" y="758" type="qcurve"/>
      <point x="341" y="758" type="line"/>
      <point x="268" y="658"/>
      <point x="170" y="442"/>
      <point x="147" y="336" type="qcurve" smooth="yes"/>
      <point x="128" y="246"/>
      <point x="128" y="148" type="qcurve" smooth="yes"/>
      <point x="128" y="24"/>
      <point x="162" y="-86" type="qcurve"/>
      <point x="109" y="-86" type="line"/>
      <point x="59" y="40"/>
    </contour>
  </outline>
</glyph>
<glyph name="parenright" format="2">
  <advance width="295"/>
  <unicode hex="0029"/>
  <outline>
    <contour>
      <point x="160" y="230"/>
      <point x="181" y="336" type="qcurve" smooth="yes"/>
      <point x="200" y="431"/>
      <point x="201" y="520" type="qcurve" smooth="yes"/>
      <point x="201" y="644"/>
      <point x="166" y="758" type="qcurve"/>
      <point x="219" y="758" type="line"/>
      <point x="269" y="635"/>
      <point x="269" y="498" type="qcurve" smooth="yes"/>
      <point x="269" y="421"/>
      <point x="252" y="336" type="qcurve" smooth="yes"/>
      <point x="207" y="117"/>
      <point x="40" y="-86" type="qcurve"/>
      <point x="-13" y="-86" type="line"/>
      <point x="59" y="13"/>
    </contour>
  </outline>
</glyph>
<glyph name="plus" format="2">
  <advance width="524"/>
  <unicode hex="002B"/>
  <outline>
    <contour>
      <point x="233" y="249" type="line"/>
      <point x="63" y="249" type="line"/>
      <point x="63" y="316" type="line"/>
      <point x="233" y="316" type="line"/>
      <point x="233" y="486" type="line"/>
      <point x="301" y="486" type="line"/>
      <point x="301" y="316" type="line"/>
      <point x="471" y="316" type="line"/>
      <point x="471" y="249" type="line"/>
      <point x="301" y="249" type="line"/>
      <point x="301" y="79" type="line"/>
      <point x="233" y="79" type="line"/>
    </contour>
  </outline>
</glyph>
<glyph name="zero" format="2">
  <advance width="503"/>
  <unicode hex="0030"/>
  <outline>
    <contour>
      <point x="49" y="66"/>
      <point x="49" y="139" type="qcurve" smooth="yes"/>
      <point x="49" y="173"/>
      <point x="58" y="216" type="qcurve" smooth="yes"/>
      <point x="118" y="495" type="line" smooth="yes"/>
      <point x="143" y="608"/>
      <point x="250" y="717"/>
      <point x="341" y="717" type="qcurve" smooth="yes"/>
      <point x="417" y="717"/>
      <point x="496" y="643"/>
      <point x="496" y="570" type="qcurve" smooth="yes"/>
      <point x="496" y="536"/>
      <point x="486" y="495" type="qcurve" smooth="yes"/>
      <point x="427" y="216" type="line" smooth="yes"/>
      <point x="402" y="101"/>
      <point x="295" y="-10"/>
      <point x="204" y="-10" type="qcurve" smooth="yes"/>
      <point x="129" y="-10"/>
    </contour>
    <contour>
      <point x="335" y="136"/>
      <point x="355" y="230" type="qcurve" smooth="yes"/>
      <point x="408" y="476" type="line" smooth="yes"/>
      <point x="418" y="523"/>
      <point x="418" y="558" type="qcurve" smooth="yes"/>
      <point x="418" y="606"/>
      <point x="376" y="649"/>
      <point x="331" y="649" type="qcurve" smooth="yes"/>
      <point x="273" y="649"/>
      <point x="208" y="570"/>
      <point x="187" y="476" type="qcurve" smooth="yes"/>
      <point x="135" y="230" type="line" smooth="yes"/>
      <point x="125" y="185"/>
      <point x="125" y="151" type="qcurve" smooth="yes"/>
      <point x="125" y="102"/>
      <point x="168" y="57"/>
      <point x="213" y="57" type="qcurve" smooth="yes"/>
      <point x="272" y="57"/>
    </contour>
  </outline>
</glyph>
<glyph name="three" format="2">
  <advance width="506"/>
  <unicode hex="0033"/>
  <outline>
    <contour>
      <point x="40" y="60"/>
      <point x="40" y="126" type="qcurve" smooth="yes"/>
      <point x="40" y="154"/>
      <point x="45" y="175" type="qcurve"/>
      <point x="120" y="175" type="line"/>
      <point x="116" y="150"/>
      <point x="116" y="140" type="qcurve" smooth="yes"/>
      <point x="116" y="98"/>
      <point x="164" y="56"/>
      <point x="210" y="56" type="qcurve" smooth="yes"/>
      <point x="263" y="56"/>
      <point x="337" y="122"/>
      <point x="348" y="178" type="qcurve" smooth="yes"/>
      <point x="357" y="223"/>
      <point x="357" y="242" type="qcurve" smooth="yes"/>
      <point x="357" y="285"/>
      <point x="309" y="333"/>
      <point x="262" y="333" type="qcurve" smooth="yes"/>
      <point x="222" y="333" type="line"/>
      <point x="238" y="400" type="line"/>
      <point x="273" y="400" type="line" smooth="yes"/>
      <point x="324" y="400"/>
      <point x="399" y="464"/>
      <point x="409" y="516" type="qcurve" smooth="yes"/>
      <point x="416" y="556"/>
      <point x="416" y="566" type="qcurve" smooth="yes"/>
      <point x="416" y="605"/>
      <point x="368" y="650"/>
      <point x="327" y="650" type="qcurve" smooth="yes"/>
      <point x="225" y="650"/>
      <point x="200" y="528" type="qcurve"/>
      <point x="128" y="528" type="line"/>
      <point x="166" y="716"/>
      <point x="339" y="717" type="qcurve" smooth="yes"/>
      <point x="410" y="717"/>
      <point x="494" y="645"/>
      <point x="494" y="583" type="qcurve" smooth="yes"/>
      <point x="494" y="563"/>
      <point x="483" y="517" type="qcurve" smooth="yes"/>
      <point x="471" y="466"/>
      <point x="407" y="392"/>
      <point x="361" y="373" type="qcurve"/>
      <point x="397" y="360"/>
      <point x="433" y="298"/>
      <point x="433" y="256" type="qcurve" smooth="yes"/>
      <point x="433" y="232"/>
      <point x="423" y="182" type="qcurve" smooth="yes"/>
      <point x="405" y="93"/>
      <point x="285" y="-10"/>
      <point x="200" y="-10" type="qcurve" smooth="yes"/>
      <point x="123" y="-10"/>
    </contour>
  </outline>
</glyph>
<glyph name="six" format="2">
  <advance width="505"/>
  <unicode hex="0036"/>
  <outline>
    <contour>
      <point x="41" y="68"/>
      <point x="41" y="137" type="qcurve" smooth="yes"/>
      <point x="41" y="153"/>
      <point x="45" y="188"/>
      <point x="53" y="224" type="qcurve" smooth="yes"/>
      <point x="68" y="295"/>
      <point x="124" y="374" type="qcurve" smooth="yes"/>
      <point x="359" y="707" type="line"/>
      <point x="440" y="707" type="line"/>
      <point x="222" y="396" type="line"/>
      <point x="235" y="405"/>
      <point x="278" y="418"/>
      <point x="301" y="418" type="qcurve" smooth="yes"/>
      <point x="366" y="418"/>
      <point x="443" y="342"/>
      <point x="443" y="275" type="qcurve" smooth="yes"/>
      <point x="443" y="258"/>
      <point x="436" y="216"/>
      <point x="430" y="188" type="qcurve" smooth="yes"/>
      <point x="410" y="95"/>
      <point x="287" y="-10"/>
      <point x="203" y="-10" type="qcurve" smooth="yes"/>
      <point x="127" y="-10"/>
    </contour>
    <contour>
      <point x="342" y="125"/>
      <point x="354" y="185" type="qcurve" smooth="yes"/>
      <point x="358" y="202"/>
      <point x="360" y="215" type="qcurve" smooth="yes"/>
      <point x="366" y="242"/>
      <point x="367" y="256" type="qcurve" smooth="yes"/>
      <point x="367" y="300"/>
      <point x="314" y="350"/>
      <point x="269" y="350" type="qcurve" smooth="yes"/>
      <point x="216" y="350"/>
      <point x="140" y="282"/>
      <point x="128" y="222" type="qcurve" smooth="yes"/>
      <point x="122" y="194"/>
      <point x="118" y="166"/>
      <point x="118" y="153" type="qcurve" smooth="yes"/>
      <point x="118" y="108"/>
      <point x="168" y="56"/>
      <point x="213" y="56" type="qcurve" smooth="yes"/>
      <point x="267" y="56"/>
    </contour>
  </outline>
</glyph>
<glyph name="seven" format="2">
  <advance width="441"/>
  <unicode hex="0037"/>
  <outline>
    <contour>
      <point x="496" y="707" type="line"/>
      <point x="481" y="639" type="line"/>
      <point x="115" y="0" type="line"/>
      <point x="40" y="0" type="line"/>
      <point x="409" y="639" type="line"/>
      <point x="122" y="639" type="line"/>
      <point x="136" y="707" type="line"/>
    </contour>
  </outline>
</glyph>
<glyph name="eight" format="2">
  <advance width="524"/>
  <unicode hex="0038"/>
  <outline>
    <contour>
      <point x="48" y="71"/>
      <point x="48" y="139" type="qcurve" smooth="yes"/>
      <point x="48" y="159"/>
      <point x="57" y="209" type="qcurve" smooth="yes"/>
      <point x="67" y="264"/>
      <point x="139" y="351"/>
      <point x="190" y="373" type="qcurve"/>
      <point x="133" y="405"/>
      <point x="133" y="481" type="qcurve" smooth="yes"/>
      <point x="133" y="500"/>
      <point x="139" y="529"/>
      <point x="141" y="541" type="qcurve" smooth="yes"/>
      <point x="155" y="618"/>
      <point x="270" y="717"/>
      <point x="351" y="717" type="qcurve" smooth="yes"/>
      <point x="423" y="717"/>
      <point x="505" y="639"/>
      <point x="505" y="575" type="qcurve" smooth="yes"/>
      <point x="505" y="558"/>
      <point x="502" y="540" type="qcurve" smooth="yes"/>
      <point x="498" y="518" type="line" smooth="yes"/>
      <point x="489" y="467"/>
      <point x="425" y="390"/>
      <point x="382" y="372" type="qcurve"/>
      <point x="417" y="355"/>
      <point x="451" y="292"/>
      <point x="451" y="251" type="qcurve" smooth="yes"/>
      <point x="451" y="237"/>
      <point x="445" y="205"/>
      <point x="440" y="183" type="qcurve" smooth="yes"/>
      <point x="420" y="94"/>
      <point x="297" y="-10"/>
      <point x="212" y="-10" type="qcurve" smooth="yes"/>
      <point x="137" y="-10"/>
    </contour>
    <contour>
      <point x="414" y="468"/>
      <point x="423" y="518" type="qcurve" smooth="yes"/>
      <point x="427" y="541" type="line" smooth="yes"/>
      <point x="430" y="555"/>
      <point x="430" y="567" type="qcurve" smooth="yes"/>
      <point x="430" y="605"/>
      <point x="383" y="650"/>
      <point x="342" y="650" type="qcurve" smooth="yes"/>
      <point x="295" y="650"/>
      <point x="223" y="588"/>
      <point x="215" y="540" type="qcurve" smooth="yes"/>
      <point x="208" y="500"/>
      <point x="208" y="489" type="qcurve" smooth="yes"/>
      <point x="208" y="450"/>
      <point x="255" y="404"/>
      <point x="295" y="404" type="qcurve" smooth="yes"/>
      <point x="344" y="404"/>
    </contour>
    <contour>
      <point x="352" y="126"/>
      <point x="366" y="184" type="qcurve" smooth="yes"/>
      <point x="371" y="206"/>
      <point x="375" y="229"/>
      <point x="375" y="242" type="qcurve" smooth="yes"/>
      <point x="375" y="286"/>
      <point x="325" y="338"/>
      <point x="278" y="338" type="qcurve" smooth="yes"/>
      <point x="224" y="338"/>
      <point x="144" y="268"/>
      <point x="132" y="211" type="qcurve" smooth="yes"/>
      <point x="123" y="169"/>
      <point x="123" y="155" type="qcurve" smooth="yes"/>
      <point x="123" y="110"/>
      <point x="175" y="56"/>
      <point x="221" y="56" type="qcurve" smooth="yes"/>
      <point x="275" y="56"/>
    </contour>
  </outline>
</glyph>
<glyph name="nine" format="2">
  <advance width="505"/>
  <unicode hex="0039"/>
  <outline>
    <contour>
      <point x="324" y="310" type="line"/>
      <point x="310" y="301"/>
      <point x="265" y="289"/>
      <point x="243" y="289" type="qcurve" smooth="yes"/>
      <point x="177" y="289"/>
      <point x="102" y="366"/>
      <point x="102" y="433" type="qcurve" smooth="yes"/>
      <point x="102" y="449"/>
      <point x="108" y="481"/>
      <point x="114" y="513"/>
      <point x="116" y="521" type="qcurve" smooth="yes"/>
      <point x="134" y="614"/>
      <point x="256" y="717"/>
      <point x="340" y="717" type="qcurve" smooth="yes"/>
      <point x="416" y="717"/>
      <point x="505" y="637"/>
      <point x="505" y="567" type="qcurve" smooth="yes"/>
      <point x="505" y="554"/>
      <point x="499" y="514"/>
      <point x="493" y="481" type="qcurve" smooth="yes"/>
      <point x="486" y="443"/>
      <point x="451" y="374"/>
      <point x="422" y="333" type="qcurve" smooth="yes"/>
      <point x="187" y="0" type="line"/>
      <point x="105" y="0" type="line"/>
    </contour>
    <contour>
      <point x="407" y="425"/>
      <point x="418" y="483" type="qcurve" smooth="yes"/>
      <point x="429" y="539"/>
      <point x="429" y="556" type="qcurve" smooth="yes"/>
      <point x="429" y="600"/>
      <point x="378" y="650"/>
      <point x="333" y="650" type="qcurve" smooth="yes"/>
      <point x="280" y="650"/>
      <point x="203" y="581"/>
      <point x="190" y="520" type="qcurve" smooth="yes"/>
      <point x="179" y="467"/>
      <point x="179" y="450" type="qcurve" smooth="yes"/>
      <point x="179" y="406"/>
      <point x="229" y="356"/>
      <point x="274" y="356" type="qcurve" smooth="yes"/>
      <point x="329" y="356"/>
    </contour>
  </outline>
</glyph>
<glyph name="greater" format="2">
  <advance width="524"/>
  <unicode hex="003E"/>
  <outline>
    <contour>
      <point x="81" y="159" type="line"/>
      <point x="393" y="283" type="line"/>
      <point x="81" y="407" type="line"/>
      <point x="81" y="479" type="line"/>
      <point x="488" y="313" type="line"/>
      <point x="488" y="253" type="line"/>
      <point x="81" y="86" type="line"/>
    </contour>
  </outline>
</glyph>
<glyph name="question" format="2">
  <advance width="440"/>
  <unicode hex="003F"/>
  <outline>
    <contour>
      <point x="173" y="243" type="line" smooth="yes"/>
      <point x="181" y="280"/>
      <point x="205" y="325"/>
      <point x="236" y="357" type="qcurve" smooth="yes"/>
      <point x="306" y="432" type="line" smooth="yes"/>
      <point x="342" y="470"/>
      <point x="372" y="517"/>
      <point x="378" y="546" type="qcurve" smooth="yes"/>
      <point x="381" y="561"/>
      <point x="381" y="574" type="qcurve" smooth="yes"/>
      <point x="381" y="610"/>
      <point x="338" y="649"/>
      <point x="297" y="649" type="qcurve" smooth="yes"/>
      <point x="198" y="649"/>
      <point x="172" y="538" type="qcurve"/>
      <point x="97" y="538" type="line"/>
      <point x="117" y="625"/>
      <point x="228" y="717"/>
      <point x="313" y="717" type="qcurve" smooth="yes"/>
      <point x="382" y="717"/>
      <point x="457" y="647"/>
      <point x="457" y="588" type="qcurve" smooth="yes"/>
      <point x="457" y="565"/>
      <point x="453" y="546" type="qcurve" smooth="yes"/>
      <point x="446" y="509"/>
      <point x="408" y="447"/>
      <point x="371" y="409" type="qcurve" smooth="yes"/>
      <point x="295" y="327" type="line" smooth="yes"/>
      <point x="272" y="303"/>
      <point x="254" y="268"/>
      <point x="248" y="242" type="qcurve" smooth="yes"/>
      <point x="234" y="182" type="line"/>
      <point x="160" y="182" type="line"/>
    </contour>
    <contour>
      <point x="133" y="95" type="line"/>
      <point x="224" y="95" type="line"/>
      <point x="204" y="0" type="line"/>
      <point x="113" y="0" type="line"/>
    </contour>
  </outline>
</glyph>
<glyph name="at" format="2">
  <advance width="892"/>
  <unicode hex="0040"/>
  <outline>
    <contour>
      <point x="130" y="-58"/>
      <point x="49" y="76"/>
      <point x="49" y="165" type="qcurve" smooth="yes"/>
      <point x="49" y="210"/>
      <point x="59" y="255" type="qcurve" smooth="yes"/>
      <point x="75" y="325" type="line" smooth="yes"/>
      <point x="101" y="440"/>
      <point x="220" y="611"/>
      <point x="407" y="707"/>
      <point x="525" y="707" type="qcurve" smooth="yes"/>
      <point x="623" y="707"/>
      <point x="773" y="633"/>
      <point x="856" y="498"/>
      <point x="856" y="410" type="qcurve" smooth="yes"/>
      <point x="856" y="370"/>
      <point x="847" y="327" type="qcurve" smooth="yes"/>
      <point x="833" y="258" type="line" smooth="yes"/>
      <point x="811" y="158"/>
      <point x="705" y="57"/>
      <point x="636" y="57" type="qcurve" smooth="yes"/>
      <point x="594" y="57"/>
      <point x="541" y="95"/>
      <point x="532" y="130" type="qcurve"/>
      <point x="485" y="57"/>
      <point x="394" y="57" type="qcurve" smooth="yes"/>
      <point x="331" y="57"/>
      <point x="266" y="125"/>
      <point x="266" y="185" type="qcurve" smooth="yes"/>
      <point x="266" y="212"/>
      <point x="272" y="243" type="qcurve" smooth="yes"/>
      <point x="290" y="325" type="line" smooth="yes"/>
      <point x="330" y="511"/>
      <point x="478" y="511" type="qcurve" smooth="yes"/>
      <point x="517" y="511"/>
      <point x="570" y="481"/>
      <point x="583" y="455" type="qcurve"/>
      <point x="592" y="501" type="line"/>
      <point x="659" y="501" type="line"/>
      <point x="596" y="205" type="line" smooth="yes"/>
      <point x="593" y="189"/>
      <point x="593" y="175" type="qcurve" smooth="yes"/>
      <point x="593" y="145"/>
      <point x="624" y="116"/>
      <point x="649" y="116" type="qcurve" smooth="yes"/>
      <point x="688" y="116"/>
      <point x="741" y="181"/>
      <point x="759" y="257" type="qcurve" smooth="yes"/>
      <point x="774" y="326" type="line" smooth="yes"/>
      <point x="783" y="369"/>
      <point x="783" y="407" type="qcurve" smooth="yes"/>
      <point x="783" y="517"/>
      <point x="647" y="641"/>
      <point x="524" y="641" type="qcurve" smooth="yes"/>
      <point x="369" y="641"/>
      <point x="178" y="474"/>
      <point x="147" y="327" type="qcurve" smooth="yes"/>
      <point x="132" y="254" type="line" smooth="yes"/>
      <point x="123" y="211"/>
      <point x="123" y="172" type="qcurve" smooth="yes"/>
      <point x="123" y="63"/>
      <point x="259" y="-65"/>
      <point x="381" y="-65" type="qcurve" smooth="yes"/>
      <point x="449" y="-65"/>
      <point x="557" y="-39"/>
      <point x="613" y="-12" type="qcurve"/>
      <point x="633" y="-71" type="line"/>
      <point x="571" y="-103"/>
      <point x="449" y="-131"/>
      <point x="375" y="-131" type="qcurve" smooth="yes"/>
      <point x="278" y="-131"/>
    </contour>
    <contour>
      <point x="535" y="243" type="qcurve" smooth="yes"/>
      <point x="553" y="327" type="line" smooth="yes"/>
      <point x="558" y="349"/>
      <point x="558" y="373" type="qcurve" smooth="yes"/>
      <point x="558" y="452"/>
      <point x="483" y="452" type="qcurve" smooth="yes"/>
      <point x="386" y="452"/>
      <point x="359" y="324" type="qcurve" smooth="yes"/>
      <point x="343" y="248" type="line" smooth="yes"/>
      <point x="337" y="219"/>
      <point x="337" y="196" type="qcurve" smooth="yes"/>
      <point x="337" y="117"/>
      <point x="413" y="117" type="qcurve" smooth="yes"/>
      <point x="507" y="117"/>
    </contour>
  </outline>
</glyph>
<glyph name="B" format="2">
  <advance width="631"/>
  <unicode hex="0042"/>
  <outline>
    <contour>
      <point x="553" y="281"/>
      <point x="553" y="233" type="qcurve" smooth="yes"/>
      <point x="553" y="161"/>
      <point x="485" y="56"/>
      <point x="367" y="0"/>
      <point x="292" y="0" type="qcurve" smooth="yes"/>
      <point x="27" y="0" type="line"/>
      <point x="177" y="707" type="line"/>
      <point x="431" y="707" type="line" smooth="yes"/>
      <point x="518" y="707"/>
      <point x="611" y="630"/>
      <point x="611" y="560" type="qcurve" smooth="yes"/>
      <point x="611" y="492"/>
      <point x="529" y="383"/>
      <point x="463" y="364" type="qcurve"/>
      <point x="507" y="349"/>
    </contour>
    <contour>
      <point x="238" y="640" type="line"/>
      <point x="185" y="394" type="line"/>
      <point x="350" y="394" type="line" smooth="yes"/>
      <point x="430" y="394"/>
      <point x="535" y="475"/>
      <point x="535" y="547" type="qcurve" smooth="yes"/>
      <point x="535" y="640"/>
      <point x="417" y="640" type="qcurve" smooth="yes"/>
    </contour>
    <contour>
      <point x="477" y="154"/>
      <point x="477" y="228" type="qcurve" smooth="yes"/>
      <point x="477" y="277"/>
      <point x="416" y="328"/>
      <point x="356" y="328" type="qcurve" smooth="yes"/>
      <point x="171" y="328" type="line"/>
      <point x="116" y="67" type="line"/>
      <point x="293" y="67" type="line" smooth="yes"/>
      <point x="377" y="67"/>
    </contour>
  </outline>
</glyph>
<glyph name="M" format="2">
  <advance width="770"/>
  <unicode hex="004D"/>
  <outline>
    <contour>
      <point x="783" y="707" type="line"/>
      <point x="633" y="0" type="line"/>
      <point x="558" y="0" type="line"/>
      <point x="675" y="548" type="line"/>
      <point x="391" y="141" type="line"/>
      <point x="333" y="141" type="line"/>
      <point x="218" y="550" type="line"/>
      <point x="101" y="0" type="line"/>
      <point x="27" y="0" type="line"/>
      <point x="177" y="707" type="line"/>
      <point x="252" y="707" type="line"/>
      <point x="380" y="230" type="line"/>
      <point x="709" y="707" type="line"/>
    </contour>
  </outline>
</glyph>
<glyph name="O" format="2">
  <advance width="623"/>
  <unicode hex="004F"/>
  <anchor x="396" y="707" name="Anchor-0"/>
  <outline>
    <contour>
      <point x="59" y="83"/>
      <point x="59" y="179" type="qcurve" smooth="yes"/>
      <point x="59" y="216"/>
      <point x="69" y="262" type="qcurve" smooth="yes"/>
      <point x="108" y="445" type="line" smooth="yes"/>
      <point x="165" y="715"/>
      <point x="398" y="716" type="qcurve" smooth="yes"/>
      <point x="492" y="716"/>
      <point x="605" y="625"/>
      <point x="605" y="528" type="qcurve" smooth="yes"/>
      <point x="605" y="491"/>
      <point x="596" y="445" type="qcurve" smooth="yes"/>
      <point x="557" y="262" type="line" smooth="yes"/>
      <point x="500" y="-8"/>
      <point x="268" y="-8" type="qcurve" smooth="yes"/>
      <point x="172" y="-8"/>
    </contour>
    <contour>
      <point x="459" y="155"/>
      <point x="481" y="258" type="qcurve" smooth="yes"/>
      <point x="521" y="442" type="line" smooth="yes"/>
      <point x="529" y="479"/>
      <point x="529" y="515" type="qcurve" smooth="yes"/>
      <point x="529" y="648"/>
      <point x="389" y="648" type="qcurve" smooth="yes"/>
      <point x="306" y="648"/>
      <point x="206" y="552"/>
      <point x="182" y="442" type="qcurve" smooth="yes"/>
      <point x="142" y="258" type="line" smooth="yes"/>
      <point x="134" y="219"/>
      <point x="134" y="190" type="qcurve" smooth="yes"/>
      <point x="134" y="60"/>
      <point x="279" y="60" type="qcurve" smooth="yes"/>
      <point x="358" y="60"/>
    </contour>
  </outline>
</glyph>
<glyph name="Q" format="2">
  <advance width="623"/>
  <unicode hex="0051"/>
  <anchor x="396" y="707" name="Anchor-0"/>
  <outline>
    <contour>
      <point x="605" y="625"/>
      <point x="605" y="528" type="qcurve" smooth="yes"/>
      <point x="605" y="491"/>
      <point x="596" y="445" type="qcurve" smooth="yes"/>
      <point x="557" y="262" type="line" smooth="yes"/>
      <point x="518" y="80"/>
      <point x="399" y="20" type="qcurve"/>
      <point x="446" y="-122" type="line"/>
      <point x="381" y="-155" type="line"/>
      <point x="331" y="-3" type="line"/>
      <point x="297" y="-8"/>
      <point x="268" y="-8" type="qcurve" smooth="yes"/>
      <point x="172" y="-8"/>
      <point x="59" y="83"/>
      <point x="59" y="179" type="qcurve" smooth="yes"/>
      <point x="59" y="216"/>
      <point x="69" y="262" type="qcurve" smooth="yes"/>
      <point x="108" y="445" type="line" smooth="yes"/>
      <point x="165" y="715"/>
      <point x="398" y="716" type="qcurve" smooth="yes"/>
      <point x="493" y="716"/>
    </contour>
    <contour>
      <point x="529" y="515" type="qcurve" smooth="yes"/>
      <point x="529" y="648"/>
      <point x="389" y="648" type="qcurve" smooth="yes"/>
      <point x="306" y="648"/>
      <point x="206" y="552"/>
      <point x="182" y="442" type="qcurve" smooth="yes"/>
      <point x="142" y="258" type="line" smooth="yes"/>
      <point x="134" y="219"/>
      <point x="134" y="190" type="qcurve" smooth="yes"/>
      <point x="134" y="60"/>
      <point x="279" y="60" type="qcurve" smooth="yes"/>
      <point x="359" y="60"/>
      <point x="459" y="155"/>
      <point x="481" y="258" type="qcurve" smooth="yes"/>
      <point x="521" y="442" type="line" smooth="yes"/>
      <point x="529" y="479"/>
    </contour>
  </outline>
</glyph>
<glyph name="R" format="2">
  <advance width="613"/>
  <unicode hex="0052"/>
  <outline>
    <contour>
      <point x="509" y="337"/>
      <point x="416" y="317" type="qcurve"/>
      <point x="517" y="0" type="line"/>
      <point x="432" y="0" type="line"/>
      <point x="338" y="310" type="line"/>
      <point x="168" y="310" type="line"/>
      <point x="101" y="0" type="line"/>
      <point x="27" y="0" type="line"/>
      <point x="177" y="707" type="line"/>
      <point x="437" y="707" type="line" smooth="yes"/>
      <point x="521" y="707"/>
      <point x="616" y="627"/>
      <point x="616" y="553" type="qcurve" smooth="yes"/>
      <point x="616" y="464"/>
    </contour>
    <contour>
      <point x="540" y="463"/>
      <point x="540" y="540" type="qcurve" smooth="yes"/>
      <point x="540" y="589"/>
      <point x="478" y="639"/>
      <point x="420" y="639" type="qcurve" smooth="yes"/>
      <point x="238" y="639" type="line"/>
      <point x="181" y="375" type="line"/>
      <point x="358" y="375" type="line" smooth="yes"/>
      <point x="438" y="375"/>
    </contour>
  </outline>
</glyph>
<glyph name="S" format="2">
  <advance width="563"/>
  <unicode hex="0053"/>
  <anchor x="349" y="707" name="Anchor-0"/>
  <outline>
    <contour>
      <point x="19" y="82"/>
      <point x="19" y="165" type="qcurve" smooth="yes"/>
      <point x="19" y="188"/>
      <point x="22" y="200" type="qcurve"/>
      <point x="94" y="200" type="line"/>
      <point x="93" y="192"/>
      <point x="93" y="176" type="qcurve" smooth="yes"/>
      <point x="93" y="59"/>
      <point x="233" y="59" type="qcurve" smooth="yes"/>
      <point x="327" y="59"/>
      <point x="428" y="145"/>
      <point x="428" y="220" type="qcurve" smooth="yes"/>
      <point x="428" y="263"/>
      <point x="376" y="311"/>
      <point x="322" y="322" type="qcurve" smooth="yes"/>
      <point x="242" y="337" type="line" smooth="yes"/>
      <point x="98" y="365"/>
      <point x="97" y="483" type="qcurve" smooth="yes"/>
      <point x="97" y="555"/>
      <point x="164" y="659"/>
      <point x="285" y="716"/>
      <point x="362" y="716" type="qcurve" smooth="yes"/>
      <point x="450" y="716"/>
      <point x="557" y="631"/>
      <point x="557" y="546" type="qcurve" smooth="yes"/>
      <point x="557" y="529"/>
      <point x="556" y="519" type="qcurve"/>
      <point x="482" y="519" type="line"/>
      <point x="484" y="537"/>
      <point x="484" y="545" type="qcurve" smooth="yes"/>
      <point x="484" y="651"/>
      <point x="357" y="651" type="qcurve" smooth="yes"/>
      <point x="271" y="651"/>
      <point x="172" y="565"/>
      <point x="172" y="498" type="qcurve" smooth="yes"/>
      <point x="172" y="458"/>
      <point x="222" y="411"/>
      <point x="273" y="401" type="qcurve" smooth="yes"/>
      <point x="355" y="386" type="line" smooth="yes"/>
      <point x="428" y="373"/>
      <point x="504" y="300"/>
      <point x="504" y="236" type="qcurve" smooth="yes"/>
      <point x="504" y="121"/>
      <point x="356" y="-6"/>
      <point x="227" y="-6" type="qcurve" smooth="yes"/>
      <point x="128" y="-6"/>
    </contour>
  </outline>
</glyph>
<glyph name="X" format="2">
  <advance width="571"/>
  <unicode hex="0058"/>
  <outline>
    <contour>
      <point x="265" y="370" type="line"/>
      <point x="118" y="707" type="line"/>
      <point x="206" y="707" type="line"/>
      <point x="322" y="428" type="line"/>
      <point x="555" y="707" type="line"/>
      <point x="642" y="707" type="line"/>
      <point x="352" y="369" type="line"/>
      <point x="512" y="0" type="line"/>
      <point x="423" y="0" type="line"/>
      <point x="296" y="310" type="line"/>
      <point x="37" y="0" type="line"/>
      <point x="-51" y="0" type="line"/>
    </contour>
  </outline>
</glyph>
<glyph name="bracketright" format="2">
  <advance width="302"/>
  <unicode hex="005D"/>
  <outline>
    <contour>
      <point x="2" y="-18" type="line"/>
      <point x="86" y="-18" type="line"/>
      <point x="237" y="690" type="line"/>
      <point x="153" y="690" type="line"/>
      <point x="166" y="758" type="line"/>
      <point x="326" y="758" type="line"/>
      <point x="146" y="-86" type="line"/>
      <point x="-13" y="-86" type="line"/>
    </contour>
  </outline>
</glyph>
<glyph name="grave" format="2">
  <advance width="498"/>
  <unicode hex="0060"/>
  <outline>
    <contour>
      <point x="250" y="714" type="line"/>
      <point x="330" y="714" type="line"/>
      <point x="404" y="586" type="line"/>
      <point x="346" y="586" type="line"/>
    </contour>
  </outline>
</glyph>
<glyph name="a" format="2">
  <advance width="522"/>
  <unicode hex="0061"/>
  <anchor x="301" y="519" name="Anchor-0"/>
  <outline>
    <contour>
      <point x="41" y="63"/>
      <point x="41" y="137" type="qcurve" smooth="yes"/>
      <point x="41" y="166"/>
      <point x="49" y="207" type="qcurve" smooth="yes"/>
      <point x="72" y="313" type="line" smooth="yes"/>
      <point x="96" y="423"/>
      <point x="214" y="525"/>
      <point x="293" y="525" type="qcurve" smooth="yes"/>
      <point x="339" y="525"/>
      <point x="401" y="485"/>
      <point x="416" y="446" type="qcurve"/>
      <point x="431" y="519" type="line"/>
      <point x="501" y="519" type="line"/>
      <point x="390" y="0" type="line"/>
      <point x="322" y="0" type="line"/>
      <point x="337" y="70" type="line"/>
      <point x="281" y="-6"/>
      <point x="182" y="-6" type="qcurve" smooth="yes"/>
      <point x="120" y="-6"/>
    </contour>
    <contour>
      <point x="351" y="142"/>
      <point x="366" y="212" type="qcurve" smooth="yes"/>
      <point x="385" y="303" type="line" smooth="yes"/>
      <point x="390" y="327"/>
      <point x="390" y="354" type="qcurve" smooth="yes"/>
      <point x="390" y="405"/>
      <point x="341" y="463"/>
      <point x="291" y="463" type="qcurve" smooth="yes"/>
      <point x="175" y="463"/>
      <point x="141" y="308" type="qcurve" smooth="yes"/>
      <point x="120" y="210" type="line" smooth="yes"/>
      <point x="114" y="184"/>
      <point x="114" y="153" type="qcurve" smooth="yes"/>
      <point x="114" y="57"/>
      <point x="206" y="56" type="qcurve" smooth="yes"/>
      <point x="270" y="56"/>
    </contour>
  </outline>
</glyph>
<glyph name="h" format="2">
  <advance width="534"/>
  <unicode hex="0068"/>
  <outline>
    <contour>
      <point x="172" y="707" type="line"/>
      <point x="242" y="707" type="line"/>
      <point x="188" y="456" type="line"/>
      <point x="244" y="526"/>
      <point x="338" y="525" type="qcurve" smooth="yes"/>
      <point x="406" y="525"/>
      <point x="481" y="457"/>
      <point x="481" y="393" type="qcurve" smooth="yes"/>
      <point x="481" y="368"/>
      <point x="475" y="341" type="qcurve" smooth="yes"/>
      <point x="402" y="0" type="line"/>
      <point x="333" y="0" type="line"/>
      <point x="402" y="331" type="line" smooth="yes"/>
      <point x="407" y="357"/>
      <point x="408" y="373" type="qcurve" smooth="yes"/>
      <point x="408" y="417"/>
      <point x="356" y="463"/>
      <point x="310" y="463" type="qcurve" smooth="yes"/>
      <point x="254" y="463"/>
      <point x="175" y="394"/>
      <point x="162" y="331" type="qcurve" smooth="yes"/>
      <point x="91" y="0" type="line"/>
      <point x="22" y="0" type="line"/>
    </contour>
  </outline>
</glyph>
<glyph name="q" format="2">
  <advance width="522"/>
  <unicode hex="0071"/>
  <outline>
    <contour>
      <point x="336" y="69" type="line"/>
      <point x="281" y="-6"/>
      <point x="182" y="-6" type="qcurve" smooth="yes"/>
      <point x="120" y="-6"/>
      <point x="41" y="63"/>
      <point x="41" y="137" type="qcurve" smooth="yes"/>
      <point x="41" y="166"/>
      <point x="49" y="207" type="qcurve" smooth="yes"/>
      <point x="72" y="313" type="line" smooth="yes"/>
      <point x="96" y="423"/>
      <point x="213" y="525"/>
      <point x="290" y="525" type="qcurve" smooth="yes"/>
      <point x="386" y="525"/>
      <point x="416" y="446" type="qcurve"/>
      <point x="431" y="519" type="line"/>
      <point x="501" y="519" type="line"/>
      <point x="357" y="-156" type="line"/>
      <point x="288" y="-156" type="line"/>
    </contour>
    <contour>
      <point x="351" y="142"/>
      <point x="366" y="212" type="qcurve" smooth="yes"/>
      <point x="385" y="302" type="line" smooth="yes"/>
      <point x="390" y="326"/>
      <point x="390" y="353" type="qcurve" smooth="yes"/>
      <point x="390" y="404"/>
      <point x="339" y="463"/>
      <point x="289" y="463" type="qcurve" smooth="yes"/>
      <point x="176" y="463"/>
      <point x="141" y="308" type="qcurve" smooth="yes"/>
      <point x="120" y="211" type="line" smooth="yes"/>
      <point x="114" y="185"/>
      <point x="114" y="154" type="qcurve" smooth="yes"/>
      <point x="114" y="57"/>
      <point x="206" y="56" type="qcurve" smooth="yes"/>
      <point x="270" y="56"/>
    </contour>
  </outline>
</glyph>
<glyph name="r" format="2">
  <advance width="346"/>
  <unicode hex="0072"/>
  <outline>
    <contour>
      <point x="132" y="519" type="line"/>
      <point x="202" y="519" type="line"/>
      <point x="186" y="450" type="line"/>
      <point x="216" y="489"/>
      <point x="295" y="526"/>
      <point x="339" y="526" type="qcurve" smooth="yes"/>
      <point x="358" y="526"/>
      <point x="377" y="523" type="qcurve"/>
      <point x="361" y="454" type="line"/>
      <point x="339" y="462"/>
      <point x="310" y="462" type="qcurve" smooth="yes"/>
      <point x="256" y="462"/>
      <point x="174" y="386"/>
      <point x="161" y="322" type="qcurve" smooth="yes"/>
      <point x="92" y="0" type="line"/>
      <point x="23" y="0" type="line"/>
    </contour>
  </outline>
</glyph>
<glyph name="s" format="2">
  <advance width="477"/>
  <unicode hex="0073"/>
  <anchor x="262" y="519" name="Anchor-0"/>
  <outline>
    <contour>
      <point x="25" y="75"/>
      <point x="25" y="150" type="qcurve"/>
      <point x="90" y="150" type="line"/>
      <point x="90" y="102"/>
      <point x="146" y="53"/>
      <point x="208" y="53" type="qcurve" smooth="yes"/>
      <point x="265" y="53"/>
      <point x="341" y="111"/>
      <point x="341" y="160" type="qcurve" smooth="yes"/>
      <point x="341" y="192"/>
      <point x="302" y="222"/>
      <point x="261" y="229" type="qcurve" smooth="yes"/>
      <point x="201" y="241" type="line" smooth="yes"/>
      <point x="136" y="253"/>
      <point x="77" y="304"/>
      <point x="77" y="353" type="qcurve" smooth="yes"/>
      <point x="77" y="403"/>
      <point x="127" y="482"/>
      <point x="218" y="526"/>
      <point x="280" y="526" type="qcurve" smooth="yes"/>
      <point x="368" y="526"/>
      <point x="451" y="449"/>
      <point x="451" y="378" type="qcurve"/>
      <point x="383" y="378" type="line"/>
      <point x="383" y="425"/>
      <point x="330" y="469"/>
      <point x="271" y="469" type="qcurve" smooth="yes"/>
      <point x="215" y="469"/>
      <point x="146" y="411"/>
      <point x="146" y="367" type="qcurve" smooth="yes"/>
      <point x="146" y="338"/>
      <point x="183" y="308"/>
      <point x="222" y="301" type="qcurve" smooth="yes"/>
      <point x="287" y="289" type="line" smooth="yes"/>
      <point x="353" y="277"/>
      <point x="412" y="220"/>
      <point x="412" y="170" type="qcurve" smooth="yes"/>
      <point x="412" y="90"/>
      <point x="295" y="-6"/>
      <point x="200" y="-6" type="qcurve" smooth="yes"/>
      <point x="113" y="-6"/>
    </contour>
  </outline>
</glyph>
<glyph name="t" format="2">
  <advance width="359"/>
  <unicode hex="0074"/>
  <outline>
    <contour>
      <point x="163" y="132" type="line" smooth="yes"/>
      <point x="161" y="124"/>
      <point x="161" y="109" type="qcurve" smooth="yes"/>
      <point x="161" y="62"/>
      <point x="215" y="61" type="qcurve" smooth="yes"/>
      <point x="256" y="61" type="line"/>
      <point x="243" y="0" type="line"/>
      <point x="190" y="0" type="line" smooth="yes"/>
      <point x="141" y="0"/>
      <point x="88" y="49"/>
      <point x="88" y="92" type="qcurve" smooth="yes"/>
      <point x="88" y="111"/>
      <point x="92" y="129" type="qcurve" smooth="yes"/>
      <point x="164" y="464" type="line"/>
      <point x="83" y="464" type="line"/>
      <point x="94" y="519" type="line"/>
      <point x="175" y="519" type="line"/>
      <point x="201" y="638" type="line"/>
      <point x="278" y="671" type="line"/>
      <point x="245" y="519" type="line"/>
      <point x="362" y="519" type="line"/>
      <point x="351" y="464" type="line"/>
      <point x="233" y="464" type="line"/>
    </contour>
  </outline>
</glyph>
<glyph name="u" format="2">
  <advance width="535"/>
  <unicode hex="0075"/>
  <anchor x="323" y="519" name="Anchor-0"/>
  <outline>
    <contour>
      <point x="56" y="66"/>
      <point x="56" y="133" type="qcurve" smooth="yes"/>
      <point x="56" y="156"/>
      <point x="63" y="194" type="qcurve" smooth="yes"/>
      <point x="132" y="519" type="line"/>
      <point x="203" y="519" type="line"/>
      <point x="134" y="199" type="line" smooth="yes"/>
      <point x="127" y="163"/>
      <point x="127" y="142" type="qcurve" smooth="yes"/>
      <point x="127" y="99"/>
      <point x="174" y="56"/>
      <point x="225" y="56" type="qcurve" smooth="yes"/>
      <point x="291" y="56"/>
      <point x="360" y="125"/>
      <point x="376" y="200" type="qcurve" smooth="yes"/>
      <point x="444" y="519" type="line"/>
      <point x="514" y="519" type="line"/>
      <point x="444" y="190" type="line" smooth="yes"/>
      <point x="402" y="-7"/>
      <point x="219" y="-6" type="qcurve" smooth="yes"/>
      <point x="139" y="-6"/>
    </contour>
  </outline>
</glyph>
<glyph name="y" format="2">
  <advance width="450"/>
  <unicode hex="0079"/>
  <anchor x="271" y="519" name="Anchor-0"/>
  <outline>
    <contour>
      <point x="492" y="519" type="line"/>
      <point x="169" y="-56" type="line" smooth="yes"/>
      <point x="139" y="-108"/>
      <point x="65" y="-156"/>
      <point x="11" y="-156" type="qcurve" smooth="yes"/>
      <point x="-19" y="-156" type="line"/>
      <point x="-6" y="-92" type="line"/>
      <point x="18" y="-92" type="line" smooth="yes"/>
      <point x="56" y="-92"/>
      <point x="100" y="-62"/>
      <point x="120" y="-27" type="qcurve" smooth="yes"/>
      <point x="138" y="7" type="line"/>
      <point x="70" y="519" type="line"/>
      <point x="144" y="519" type="line"/>
      <point x="193" y="108" type="line"/>
      <point x="417" y="519" type="line"/>
    </contour>
  </outline>
</glyph>
<glyph name="braceleft" format="2">
  <advance width="348"/>
  <unicode hex="007B"/>
  <outline>
    <contour>
      <point x="78" y="-12" type="qcurve" smooth="yes"/>
      <point x="78" y="7"/>
      <point x="82" y="27" type="qcurve" smooth="yes"/>
      <point x="123" y="222" type="line" smooth="yes"/>
      <point x="127" y="239"/>
      <point x="127" y="256" type="qcurve" smooth="yes"/>
      <point x="127" y="282"/>
      <point x="99" y="304"/>
      <point x="70" y="305" type="qcurve"/>
      <point x="84" y="372" type="line"/>
      <point x="123" y="373"/>
      <point x="164" y="411"/>
      <point x="173" y="455" type="qcurve" smooth="yes"/>
      <point x="213" y="645" type="line" smooth="yes"/>
      <point x="237" y="758"/>
      <point x="342" y="758" type="qcurve" smooth="yes"/>
      <point x="393" y="758" type="line"/>
      <point x="380" y="695" type="line"/>
      <point x="343" y="695" type="line" smooth="yes"/>
      <point x="319" y="695"/>
      <point x="292" y="671"/>
      <point x="286" y="643" type="qcurve" smooth="yes"/>
      <point x="247" y="460" type="line" smooth="yes"/>
      <point x="235" y="403"/>
      <point x="197" y="350"/>
      <point x="159" y="338" type="qcurve"/>
      <point x="182" y="330"/>
      <point x="202" y="300"/>
      <point x="202" y="274" type="qcurve" smooth="yes"/>
      <point x="202" y="249"/>
      <point x="195" y="217" type="qcurve" smooth="yes"/>
      <point x="155" y="29" type="line" smooth="yes"/>
      <point x="153" y="21"/>
      <point x="153" y="9" type="qcurve" smooth="yes"/>
      <point x="153" y="-24"/>
      <point x="190" y="-24" type="qcurve" smooth="yes"/>
      <point x="226" y="-24" type="line"/>
      <point x="214" y="-86" type="line"/>
      <point x="163" y="-86" type="line" smooth="yes"/>
      <point x="78" y="-86"/>
    </contour>
  </outline>
</glyph>
<glyph name="braceright" format="2">
  <advance width="470"/>
  <unicode hex="007D"/>
  <outline>
    <contour>
      <point x="60" y="-24" type="line"/>
      <point x="96" y="-24" type="line" smooth="yes"/>
      <point x="120" y="-24"/>
      <point x="148" y="1"/>
      <point x="155" y="29" type="qcurve" smooth="yes"/>
      <point x="195" y="217" type="line" smooth="yes"/>
      <point x="207" y="273"/>
      <point x="245" y="326"/>
      <point x="282" y="338" type="qcurve"/>
      <point x="259" y="346"/>
      <point x="240" y="376"/>
      <point x="240" y="402" type="qcurve" smooth="yes"/>
      <point x="240" y="427"/>
      <point x="247" y="460" type="qcurve" smooth="yes"/>
      <point x="286" y="643" type="line" smooth="yes"/>
      <point x="288" y="650"/>
      <point x="288" y="663" type="qcurve" smooth="yes"/>
      <point x="288" y="696"/>
      <point x="250" y="695" type="qcurve" smooth="yes"/>
      <point x="213" y="695" type="line"/>
      <point x="226" y="758" type="line"/>
      <point x="278" y="758" type="line" smooth="yes"/>
      <point x="364" y="758"/>
      <point x="364" y="682" type="qcurve" smooth="yes"/>
      <point x="364" y="663"/>
      <point x="359" y="645" type="qcurve" smooth="yes"/>
      <point x="318" y="455" type="line" smooth="yes"/>
      <point x="314" y="438"/>
      <point x="314" y="421" type="qcurve" smooth="yes"/>
      <point x="314" y="395"/>
      <point x="342" y="373"/>
      <point x="373" y="372" type="qcurve"/>
      <point x="357" y="305" type="line"/>
      <point x="319" y="304"/>
      <point x="278" y="266"/>
      <point x="268" y="222" type="qcurve" smooth="yes"/>
      <point x="227" y="27" type="line" smooth="yes"/>
      <point x="203" y="-86"/>
      <point x="98" y="-86" type="qcurve" smooth="yes"/>
      <point x="47" y="-86" type="line"/>
    </contour>
  </outline>
</glyph>
<glyph name="asciitilde" format="2">
  <advance width="524"/>
  <unicode hex="007E"/>
  <outline>
    <contour>
      <point x="279" y="236"/>
      <point x="252" y="253" type="qcurve" smooth="yes"/>
      <point x="228" y="268"/>
      <point x="199" y="283"/>
      <point x="181" y="283" type="qcurve" smooth="yes"/>
      <point x="156" y="283"/>
      <point x="121" y="256"/>
      <point x="101" y="221" type="qcurve"/>
      <point x="51" y="252" type="line"/>
      <point x="73" y="299"/>
      <point x="140" y="347"/>
      <point x="181" y="347" type="qcurve" smooth="yes"/>
      <point x="207" y="347"/>
      <point x="248" y="329"/>
      <point x="276" y="311" type="qcurve" smooth="yes"/>
      <point x="301" y="297"/>
      <point x="331" y="283"/>
      <point x="348" y="283" type="qcurve" smooth="yes"/>
      <point x="373" y="283"/>
      <point x="409" y="310"/>
      <point x="428" y="344" type="qcurve"/>
      <point x="478" y="312" type="line"/>
      <point x="455" y="266"/>
      <point x="388" y="217"/>
      <point x="347" y="217" type="qcurve" smooth="yes"/>
      <point x="321" y="217"/>
    </contour>
  </outline>
</glyph>
<glyph name="exclamdown" format="2">
  <advance width="244"/>
  <unicode hex="00A1"/>
  <outline>
    <contour>
      <point x="132" y="519" type="line"/>
      <point x="224" y="519" type="line"/>
      <point x="204" y="423" type="line"/>
      <point x="112" y="423" type="line"/>
    </contour>
    <contour>
      <point x="106" y="318" type="line"/>
      <point x="164" y="318" type="line"/>
      <point x="78" y="-156" type="line"/>
      <point x="-8" y="-156" type="line"/>
    </contour>
  </outline>
</glyph>
<glyph name="currency" format="2">
  <advance width="627"/>
  <unicode hex="00A4"/>
  <outline>
    <contour>
      <point x="412" y="170" type="line"/>
      <point x="355" y="133"/>
      <point x="288" y="133" type="qcurve" smooth="yes"/>
      <point x="220" y="133"/>
      <point x="177" y="170" type="qcurve"/>
      <point x="90" y="98" type="line"/>
      <point x="53" y="147" type="line"/>
      <point x="140" y="218" type="line"/>
      <point x="124" y="253"/>
      <point x="124" y="290" type="qcurve" smooth="yes"/>
      <point x="124" y="332"/>
      <point x="160" y="419"/>
      <point x="190" y="452" type="qcurve"/>
      <point x="133" y="524" type="line"/>
      <point x="191" y="572" type="line"/>
      <point x="249" y="501" type="line"/>
      <point x="307" y="537"/>
      <point x="373" y="537" type="qcurve" smooth="yes"/>
      <point x="436" y="537"/>
      <point x="482" y="501" type="qcurve"/>
      <point x="569" y="572" type="line"/>
      <point x="607" y="524" type="line"/>
      <point x="519" y="453" type="line"/>
      <point x="536" y="420"/>
      <point x="537" y="379" type="qcurve" smooth="yes"/>
      <point x="537" y="336"/>
      <point x="501" y="251"/>
      <point x="470" y="218" type="qcurve"/>
      <point x="527" y="146" type="line"/>
      <point x="469" y="97" type="line"/>
    </contour>
    <contour>
      <point x="422" y="243"/>
      <point x="469" y="322"/>
      <point x="469" y="367" type="qcurve" smooth="yes"/>
      <point x="469" y="414"/>
      <point x="410" y="474"/>
      <point x="359" y="474" type="qcurve" smooth="yes"/>
      <point x="313" y="474"/>
      <point x="236" y="425"/>
      <point x="190" y="344"/>
      <point x="190" y="301" type="qcurve" smooth="yes"/>
      <point x="190" y="254"/>
      <point x="250" y="196"/>
      <point x="300" y="196" type="qcurve" smooth="yes"/>
      <point x="344" y="196"/>
    </contour>
  </outline>
</glyph>
<glyph name="brokenbar" format="2">
  <advance width="489"/>
  <unicode hex="00A6"/>
  <outline>
    <contour>
      <point x="226" y="758" type="line"/>
      <point x="295" y="758" type="line"/>
      <point x="295" y="397" type="line"/>
      <point x="226" y="397" type="line"/>
    </contour>
    <contour>
      <point x="226" y="278" type="line"/>
      <point x="295" y="278" type="line"/>
      <point x="295" y="-85" type="line"/>
      <point x="226" y="-85" type="line"/>
    </contour>
  </outline>
</glyph>
<glyph name="guillemotleft" format="2">
  <advance width="489"/>
  <unicode hex="00AB"/>
  <outline>
    <contour>
      <point x="28" y="270" type="line"/>
      <point x="270" y="473" type="line"/>
      <point x="253" y="388" type="line"/>
      <point x="112" y="270" type="line"/>
      <point x="203" y="153" type="line"/>
      <point x="184" y="68" type="line"/>
    </contour>
    <contour>
      <point x="215" y="270" type="line"/>
      <point x="458" y="473" type="line"/>
      <point x="440" y="388" type="line"/>
      <point x="299" y="270" type="line"/>
      <point x="390" y="153" type="line"/>
      <point x="372" y="68" type="line"/>
    </contour>
  </outline>
</glyph>
<glyph name="logicalnot" format="2">
  <advance width="524"/>
  <unicode hex="00AC"/>
  <outline>
    <contour>
      <point x="391" y="270" type="line"/>
      <point x="51" y="270" type="line"/>
      <point x="51" y="334" type="line"/>
      <point x="462" y="334" type="line"/>
      <point x="462" y="133" type="line"/>
      <point x="391" y="133" type="line"/>
    </contour>
  </outline>
</glyph>
<glyph name="registered" format="2">
  <advance width="559"/>
  <unicode hex="00AE"/>
  <outline>
    <contour>
      <point x="190" y="365"/>
      <point x="140" y="455"/>
      <point x="140" y="510" type="qcurve" smooth="yes"/>
      <point x="140" y="565"/>
      <point x="190" y="654"/>
      <point x="279" y="706"/>
      <point x="333" y="706" type="qcurve" smooth="yes"/>
      <point x="388" y="706"/>
      <point x="475" y="654"/>
      <point x="525" y="565"/>
      <point x="525" y="510" type="qcurve" smooth="yes"/>
      <point x="525" y="454"/>
      <point x="476" y="365"/>
      <point x="388" y="313"/>
      <point x="333" y="313" type="qcurve" smooth="yes"/>
      <point x="278" y="313"/>
    </contour>
    <contour>
      <point x="492" y="438"/>
      <point x="492" y="510" type="qcurve" smooth="yes"/>
      <point x="492" y="582"/>
      <point x="402" y="674"/>
      <point x="333" y="674" type="qcurve" smooth="yes"/>
      <point x="263" y="674"/>
      <point x="174" y="582"/>
      <point x="174" y="510" type="qcurve" smooth="yes"/>
      <point x="174" y="438"/>
      <point x="263" y="345"/>
      <point x="333" y="345" type="qcurve" smooth="yes"/>
      <point x="402" y="345"/>
    </contour>
    <contour>
      <point x="261" y="621" type="line"/>
      <point x="344" y="621" type="line" smooth="yes"/>
      <point x="379" y="621"/>
      <point x="417" y="587"/>
      <point x="417" y="556" type="qcurve" smooth="yes"/>
      <point x="417" y="534"/>
      <point x="395" y="503"/>
      <point x="377" y="496" type="qcurve"/>
      <point x="422" y="401" type="line"/>
      <point x="382" y="401" type="line"/>
      <point x="339" y="492" type="line"/>
      <point x="298" y="492" type="line"/>
      <point x="298" y="401" type="line"/>
      <point x="261" y="401" type="line"/>
    </contour>
    <contour>
      <point x="344" y="524" type="line" smooth="yes"/>
      <point x="380" y="524"/>
      <point x="380" y="556" type="qcurve" smooth="yes"/>
      <point x="380" y="588"/>
      <point x="344" y="588" type="qcurve" smooth="yes"/>
      <point x="298" y="588" type="line"/>
      <point x="298" y="524" type="line"/>
    </contour>
  </outline>
</glyph>
<glyph name="paragraph" format="2">
  <advance width="585"/>
  <unicode hex="00B6"/>
  <outline>
    <contour>
      <point x="278" y="279" type="line"/>
      <point x="205" y="284"/>
      <point x="125" y="371"/>
      <point x="125" y="439" type="qcurve" smooth="yes"/>
      <point x="125" y="465"/>
      <point x="131" y="493" type="qcurve" smooth="yes"/>
      <point x="143" y="553"/>
      <point x="216" y="650"/>
      <point x="329" y="707"/>
      <point x="398" y="707" type="qcurve" smooth="yes"/>
      <point x="599" y="707" type="line"/>
      <point x="416" y="-156" type="line"/>
      <point x="347" y="-156" type="line"/>
      <point x="516" y="640" type="line"/>
      <point x="423" y="640" type="line"/>
      <point x="254" y="-156" type="line"/>
      <point x="185" y="-156" type="line"/>
    </contour>
  </outline>
</glyph>
<glyph name="questiondown" format="2">
  <advance width="440"/>
  <unicode hex="00BF"/>
  <outline>
    <contour>
      <point x="236" y="519" type="line"/>
      <point x="327" y="519" type="line"/>
      <point x="306" y="424" type="line"/>
      <point x="215" y="424" type="line"/>
    </contour>
    <contour>
      <point x="-10" y="-96"/>
      <point x="-10" y="-37" type="qcurve" smooth="yes"/>
      <point x="-10" y="17"/>
      <point x="35" y="101"/>
      <point x="81" y="147" type="qcurve" smooth="yes"/>
      <point x="142" y="209" type="line" smooth="yes"/>
      <point x="169" y="236"/>
      <point x="188" y="271"/>
      <point x="196" y="304" type="qcurve" smooth="yes"/>
      <point x="204" y="340" type="line"/>
      <point x="279" y="340" type="line"/>
      <point x="269" y="303" type="line" smooth="yes"/>
      <point x="259" y="261"/>
      <point x="233" y="212"/>
      <point x="200" y="178" type="qcurve" smooth="yes"/>
      <point x="139" y="119" type="line" smooth="yes"/>
      <point x="101" y="82"/>
      <point x="66" y="15"/>
      <point x="66" y="-25" type="qcurve" smooth="yes"/>
      <point x="66" y="-61"/>
      <point x="109" y="-99"/>
      <point x="152" y="-99" type="qcurve" smooth="yes"/>
      <point x="253" y="-99"/>
      <point x="273" y="13" type="qcurve"/>
      <point x="348" y="13" type="line"/>
      <point x="332" y="-73"/>
      <point x="223" y="-166"/>
      <point x="138" y="-166" type="qcurve" smooth="yes"/>
      <point x="69" y="-166"/>
    </contour>
  </outline>
</glyph>
<glyph name="AE" format="2">
  <advance width="891"/>
  <unicode hex="00C6"/>
  <outline>
    <contour>
      <point x="587" y="639" type="line"/>
      <point x="535" y="393" type="line"/>
      <point x="810" y="393" type="line"/>
      <point x="797" y="326" type="line"/>
      <point x="520" y="326" type="line"/>
      <point x="466" y="68" type="line"/>
      <point x="794" y="68" type="line"/>
      <point x="778" y="0" type="line"/>
      <point x="377" y="0" type="line"/>
      <point x="414" y="175" type="line"/>
      <point x="166" y="175" type="line"/>
      <point x="34" y="0" type="line"/>
      <point x="-51" y="0" type="line"/>
      <point x="483" y="707" type="line"/>
      <point x="929" y="707" type="line"/>
      <point x="914" y="639" type="line"/>
    </contour>
    <contour>
      <point x="512" y="635" type="line"/>
      <point x="214" y="239" type="line"/>
      <point x="428" y="239" type="line"/>
    </contour>
  </outline>
</glyph>
<glyph name="Ccedilla" format="2">
  <advance width="624"/>
  <unicode hex="00C7"/>
  <outline>
    <contour>
      <point x="532" y="497" type="line"/>
      <point x="534" y="506"/>
      <point x="535" y="522" type="qcurve" smooth="yes"/>
      <point x="535" y="582"/>
      <point x="464" y="648"/>
      <point x="395" y="648" type="qcurve" smooth="yes"/>
      <point x="311" y="648"/>
      <point x="206" y="552"/>
      <point x="182" y="442" type="qcurve" smooth="yes"/>
      <point x="142" y="258" type="line" smooth="yes"/>
      <point x="134" y="219"/>
      <point x="134" y="193" type="qcurve" smooth="yes"/>
      <point x="134" y="125"/>
      <point x="212" y="60"/>
      <point x="282" y="60" type="qcurve" smooth="yes"/>
      <point x="358" y="60"/>
      <point x="454" y="138"/>
      <point x="471" y="208" type="qcurve" smooth="yes"/>
      <point x="472" y="212" type="line"/>
      <point x="545" y="212" type="line"/>
      <point x="544" y="208" type="line" smooth="yes"/>
      <point x="520" y="116"/>
      <point x="394" y="1"/>
      <point x="299" y="-7" type="qcurve"/>
      <point x="221" y="-154" type="line"/>
      <point x="147" y="-154" type="line"/>
      <point x="237" y="-7" type="line"/>
      <point x="155" y="0"/>
      <point x="59" y="91"/>
      <point x="59" y="179" type="qcurve" smooth="yes"/>
      <point x="59" y="216"/>
      <point x="69" y="262" type="qcurve" smooth="yes"/>
      <point x="108" y="445" type="line" smooth="yes"/>
      <point x="138" y="587"/>
      <point x="292" y="716"/>
      <point x="404" y="716" type="qcurve" smooth="yes"/>
      <point x="503" y="716"/>
      <point x="610" y="617"/>
      <point x="610" y="530" type="qcurve" smooth="yes"/>
      <point x="610" y="514"/>
      <point x="607" y="497" type="qcurve"/>
    </contour>
  </outline>
</glyph>
<glyph name="Eth" format="2">
  <advance width="672"/>
  <unicode hex="00D0"/>
  <outline>
    <contour>
      <point x="653" y="620"/>
      <point x="653" y="525" type="qcurve" smooth="yes"/>
      <point x="653" y="484"/>
      <point x="643" y="437" type="qcurve" smooth="yes"/>
      <point x="607" y="269" type="line" smooth="yes"/>
      <point x="577" y="129"/>
      <point x="418" y="0"/>
      <point x="306" y="0" type="qcurve" smooth="yes"/>
      <point x="65" y="0" type="line"/>
      <point x="133" y="324" type="line"/>
      <point x="51" y="324" type="line"/>
      <point x="66" y="391" type="line"/>
      <point x="147" y="391" type="line"/>
      <point x="215" y="707" type="line"/>
      <point x="455" y="707" type="line" smooth="yes"/>
      <point x="547" y="707"/>
    </contour>
    <contour>
      <point x="578" y="515" type="qcurve" smooth="yes"/>
      <point x="578" y="580"/>
      <point x="510" y="639"/>
      <point x="445" y="639" type="qcurve" smooth="yes"/>
      <point x="275" y="639" type="line"/>
      <point x="223" y="391" type="line"/>
      <point x="377" y="391" type="line"/>
      <point x="364" y="324" type="line"/>
      <point x="209" y="324" type="line"/>
      <point x="155" y="68" type="line"/>
      <point x="321" y="68" type="line" smooth="yes"/>
      <point x="490" y="68"/>
      <point x="531" y="265" type="qcurve" smooth="yes"/>
      <point x="567" y="434" type="line" smooth="yes"/>
      <point x="578" y="485"/>
    </contour>
  </outline>
</glyph>
<glyph name="germandbls" format="2">
  <advance width="518"/>
  <unicode hex="00DF"/>
  <outline>
    <contour>
      <point x="215" y="59" type="line"/>
      <point x="243" y="59" type="line" smooth="yes"/>
      <point x="290" y="59"/>
      <point x="339" y="92"/>
      <point x="365" y="159"/>
      <point x="381" y="230" type="qcurve" smooth="yes"/>
      <point x="396" y="300"/>
      <point x="396" y="333" type="qcurve" smooth="yes"/>
      <point x="396" y="370"/>
      <point x="357" y="402"/>
      <point x="309" y="402" type="qcurve" smooth="yes"/>
      <point x="288" y="402" type="line"/>
      <point x="301" y="466" type="line"/>
      <point x="329" y="466" type="line" smooth="yes"/>
      <point x="386" y="466"/>
      <point x="444" y="527"/>
      <point x="444" y="581" type="qcurve" smooth="yes"/>
      <point x="444" y="615"/>
      <point x="396" y="650"/>
      <point x="349" y="650" type="qcurve" smooth="yes"/>
      <point x="288" y="650"/>
      <point x="218" y="592"/>
      <point x="205" y="527" type="qcurve" smooth="yes"/>
      <point x="92" y="0" type="line"/>
      <point x="23" y="0" type="line"/>
      <point x="132" y="518" type="line" smooth="yes"/>
      <point x="152" y="615"/>
      <point x="258" y="714"/>
      <point x="356" y="714" type="qcurve" smooth="yes"/>
      <point x="432" y="714"/>
      <point x="517" y="648"/>
      <point x="517" y="593" type="qcurve" smooth="yes"/>
      <point x="517" y="542"/>
      <point x="467" y="459"/>
      <point x="420" y="437" type="qcurve"/>
      <point x="447" y="424"/>
      <point x="469" y="383"/>
      <point x="469" y="351" type="qcurve" smooth="yes"/>
      <point x="469" y="309"/>
      <point x="452" y="230" type="qcurve" smooth="yes"/>
      <point x="432" y="139"/>
      <point x="386" y="42"/>
      <point x="304" y="-4"/>
      <point x="231" y="-4" type="qcurve" smooth="yes"/>
      <point x="202" y="-4" type="line"/>
    </contour>
  </outline>
</glyph>
<glyph name="ae" format="2">
  <advance width="831"/>
  <unicode hex="00E6"/>
  <outline>
    <contour>
      <point x="35" y="58"/>
      <point x="35" y="121" type="qcurve" smooth="yes"/>
      <point x="35" y="172"/>
      <point x="89" y="252"/>
      <point x="186" y="295"/>
      <point x="249" y="295" type="qcurve" smooth="yes"/>
      <point x="384" y="295" type="line"/>
      <point x="400" y="369"/>
      <point x="400" y="387" type="qcurve" smooth="yes"/>
      <point x="400" y="468"/>
      <point x="301" y="468" type="qcurve" smooth="yes"/>
      <point x="246" y="468"/>
      <point x="180" y="419"/>
      <point x="171" y="375" type="qcurve"/>
      <point x="102" y="375" type="line"/>
      <point x="116" y="447"/>
      <point x="227" y="526"/>
      <point x="312" y="526" type="qcurve" smooth="yes"/>
      <point x="422" y="526"/>
      <point x="458" y="455" type="qcurve"/>
      <point x="489" y="492"/>
      <point x="581" y="526"/>
      <point x="632" y="526" type="qcurve" smooth="yes"/>
      <point x="706" y="526"/>
      <point x="790" y="454"/>
      <point x="790" y="377" type="qcurve" smooth="yes"/>
      <point x="790" y="343"/>
      <point x="781" y="307" type="qcurve" smooth="yes"/>
      <point x="768" y="246" type="line"/>
      <point x="444" y="246" type="line"/>
      <point x="438" y="215" type="line" smooth="yes"/>
      <point x="434" y="198"/>
      <point x="430" y="166"/>
      <point x="430" y="147" type="qcurve" smooth="yes"/>
      <point x="430" y="99"/>
      <point x="487" y="56"/>
      <point x="536" y="56" type="qcurve" smooth="yes"/>
      <point x="590" y="56"/>
      <point x="660" y="108"/>
      <point x="678" y="160" type="qcurve"/>
      <point x="746" y="160" type="line"/>
      <point x="720" y="77"/>
      <point x="608" y="-6"/>
      <point x="532" y="-6" type="qcurve" smooth="yes"/>
      <point x="409" y="-6"/>
      <point x="374" y="76" type="qcurve"/>
      <point x="341" y="36"/>
      <point x="252" y="-6"/>
      <point x="191" y="-6" type="qcurve" smooth="yes"/>
      <point x="117" y="-6"/>
    </contour>
    <contour>
      <point x="709" y="298" type="line"/>
      <point x="720" y="347"/>
      <point x="720" y="372" type="qcurve" smooth="yes"/>
      <point x="720" y="463"/>
      <point x="617" y="463" type="qcurve" smooth="yes"/>
      <point x="488" y="463"/>
      <point x="460" y="323" type="qcurve" smooth="yes"/>
      <point x="455" y="298" type="line"/>
    </contour>
    <contour>
      <point x="347" y="124"/>
      <point x="364" y="202" type="qcurve" smooth="yes"/>
      <point x="373" y="244" type="line"/>
      <point x="249" y="244" type="line" smooth="yes"/>
      <point x="180" y="244"/>
      <point x="104" y="180"/>
      <point x="104" y="129" type="qcurve" smooth="yes"/>
      <point x="104" y="90"/>
      <point x="153" y="50"/>
      <point x="204" y="50" type="qcurve" smooth="yes"/>
      <point x="272" y="50"/>
    </contour>
  </outline>
</glyph>
<glyph name="ccedilla" format="2">
  <advance width="516"/>
  <unicode hex="00E7"/>
  <outline>
    <contour>
      <point x="407" y="348" type="line"/>
      <point x="408" y="366" type="line" smooth="yes"/>
      <point x="408" y="415"/>
      <point x="357" y="463"/>
      <point x="306" y="463" type="qcurve" smooth="yes"/>
      <point x="243" y="463"/>
      <point x="159" y="394"/>
      <point x="140" y="309" type="qcurve" smooth="yes"/>
      <point x="121" y="217" type="line" smooth="yes"/>
      <point x="114" y="185"/>
      <point x="114" y="158" type="qcurve" smooth="yes"/>
      <point x="114" y="102"/>
      <point x="173" y="56"/>
      <point x="225" y="56" type="qcurve" smooth="yes"/>
      <point x="286" y="56"/>
      <point x="358" y="116"/>
      <point x="368" y="171" type="qcurve"/>
      <point x="434" y="171" type="line"/>
      <point x="426" y="95"/>
      <point x="327" y="2"/>
      <point x="247" y="-5" type="qcurve"/>
      <point x="168" y="-154" type="line"/>
      <point x="94" y="-154" type="line"/>
      <point x="184" y="-4" type="line"/>
      <point x="118" y="3"/>
      <point x="43" y="77"/>
      <point x="43" y="147" type="qcurve" smooth="yes"/>
      <point x="43" y="178"/>
      <point x="50" y="213" type="qcurve" smooth="yes"/>
      <point x="72" y="313" type="line" smooth="yes"/>
      <point x="118" y="526"/>
      <point x="310" y="526" type="qcurve" smooth="yes"/>
      <point x="391" y="526"/>
      <point x="475" y="449"/>
      <point x="475" y="374" type="qcurve" smooth="yes"/>
      <point x="475" y="357"/>
      <point x="474" y="348" type="qcurve"/>
    </contour>
  </outline>
</glyph>
<glyph name="oslash" format="2">
  <advance width="517"/>
  <unicode hex="00F8"/>
  <outline>
    <contour>
      <point x="453" y="467" type="line"/>
      <point x="478" y="432"/>
      <point x="477" y="382" type="qcurve" smooth="yes"/>
      <point x="477" y="354"/>
      <point x="469" y="313" type="qcurve" smooth="yes"/>
      <point x="446" y="207" type="line" smooth="yes"/>
      <point x="401" y="-6"/>
      <point x="214" y="-6" type="qcurve" smooth="yes"/>
      <point x="136" y="-6"/>
      <point x="91" y="28" type="qcurve"/>
      <point x="44" y="-31" type="line"/>
      <point x="0" y="-31" type="line"/>
      <point x="68" y="51" type="line"/>
      <point x="41" y="84"/>
      <point x="41" y="139" type="qcurve" smooth="yes"/>
      <point x="41" y="173"/>
      <point x="49" y="207" type="qcurve" smooth="yes"/>
      <point x="73" y="313" type="line" smooth="yes"/>
      <point x="121" y="526"/>
      <point x="307" y="526" type="qcurve" smooth="yes"/>
      <point x="384" y="526"/>
      <point x="429" y="492" type="qcurve"/>
      <point x="473" y="546" type="line"/>
      <point x="517" y="546" type="line"/>
    </contour>
    <contour>
      <point x="119" y="114" type="qcurve"/>
      <point x="383" y="436" type="line"/>
      <point x="357" y="463"/>
      <point x="304" y="463" type="qcurve" smooth="yes"/>
      <point x="244" y="463"/>
      <point x="159" y="394"/>
      <point x="141" y="309" type="qcurve" smooth="yes"/>
      <point x="121" y="211" type="line" smooth="yes"/>
      <point x="114" y="179"/>
      <point x="114" y="153" type="qcurve" smooth="yes"/>
      <point x="114" y="132"/>
    </contour>
    <contour>
      <point x="400" y="403" type="qcurve"/>
      <point x="137" y="82" type="line"/>
      <point x="163" y="56"/>
      <point x="217" y="56" type="qcurve" smooth="yes"/>
      <point x="275" y="56"/>
      <point x="359" y="125"/>
      <point x="377" y="211" type="qcurve" smooth="yes"/>
      <point x="397" y="309" type="line" smooth="yes"/>
      <point x="404" y="341"/>
      <point x="404" y="369" type="qcurve" smooth="yes"/>
      <point x="404" y="390"/>
    </contour>
  </outline>
</glyph>
<glyph name="thorn" format="2">
  <advance width="524"/>
  <unicode hex="00FE"/>
  <outline>
    <contour>
      <point x="172" y="707" type="line"/>
      <point x="242" y="707" type="line"/>
      <point x="186" y="446" type="line"/>
      <point x="216" y="485"/>
      <point x="293" y="526"/>
      <point x="338" y="526" type="qcurve" smooth="yes"/>
      <point x="404" y="526"/>
      <point x="482" y="457"/>
      <point x="482" y="383" type="qcurve" smooth="yes"/>
      <point x="482" y="351"/>
      <point x="472" y="304" type="qcurve" smooth="yes"/>
      <point x="451" y="207" type="line" smooth="yes"/>
      <point x="426" y="96"/>
      <point x="306" y="-6"/>
      <point x="230" y="-6" type="qcurve" smooth="yes"/>
      <point x="132" y="-6"/>
      <point x="105" y="69" type="qcurve"/>
      <point x="58" y="-156" type="line"/>
      <point x="-11" y="-156" type="line"/>
    </contour>
    <contour>
      <point x="364" y="129"/>
      <point x="382" y="213" type="qcurve" smooth="yes"/>
      <point x="402" y="309" type="line" smooth="yes"/>
      <point x="409" y="341"/>
      <point x="410" y="368" type="qcurve" smooth="yes"/>
      <point x="410" y="463"/>
      <point x="316" y="463" type="qcurve" smooth="yes"/>
      <point x="254" y="463"/>
      <point x="171" y="375"/>
      <point x="156" y="303" type="qcurve" smooth="yes"/>
      <point x="140" y="232" type="line" smooth="yes"/>
      <point x="131" y="189"/>
      <point x="131" y="163" type="qcurve" smooth="yes"/>
      <point x="131" y="114"/>
      <point x="182" y="56"/>
      <point x="233" y="56" type="qcurve" smooth="yes"/>
      <point x="286" y="56"/>
    </contour>
  </outline>
</glyph>
<glyph name="OE" format="2">
  <advance width="970"/>
  <unicode hex="0152"/>
  <outline>
    <contour>
      <point x="639" y="639" type="line"/>
      <point x="587" y="393" type="line"/>
      <point x="890" y="393" type="line"/>
      <point x="876" y="326" type="line"/>
      <point x="572" y="326" type="line"/>
      <point x="517" y="68" type="line"/>
      <point x="872" y="68" type="line"/>
      <point x="857" y="0" type="line"/>
      <point x="428" y="0" type="line"/>
      <point x="437" y="44" type="line"/>
      <point x="370" y="-8"/>
      <point x="268" y="-8" type="qcurve" smooth="yes"/>
      <point x="172" y="-8"/>
      <point x="59" y="83"/>
      <point x="59" y="179" type="qcurve" smooth="yes"/>
      <point x="59" y="216"/>
      <point x="69" y="262" type="qcurve" smooth="yes"/>
      <point x="108" y="445" type="line" smooth="yes"/>
      <point x="165" y="715"/>
      <point x="398" y="716" type="qcurve" smooth="yes"/>
      <point x="513" y="716"/>
      <point x="567" y="651" type="qcurve"/>
      <point x="579" y="707" type="line"/>
      <point x="1008" y="707" type="line"/>
      <point x="993" y="639" type="line"/>
    </contour>
    <contour>
      <point x="459" y="155"/>
      <point x="481" y="258" type="qcurve" smooth="yes"/>
      <point x="521" y="442" type="line" smooth="yes"/>
      <point x="529" y="479"/>
      <point x="529" y="515" type="qcurve" smooth="yes"/>
      <point x="529" y="648"/>
      <point x="389" y="648" type="qcurve" smooth="yes"/>
      <point x="306" y="648"/>
      <point x="206" y="552"/>
      <point x="182" y="442" type="qcurve" smooth="yes"/>
      <point x="142" y="258" type="line" smooth="yes"/>
      <point x="134" y="219"/>
      <point x="134" y="190" type="qcurve" smooth="yes"/>
      <point x="134" y="60"/>
      <point x="279" y="60" type="qcurve" smooth="yes"/>
      <point x="358" y="60"/>
    </contour>
  </outline>
</glyph>
<glyph name="caron" format="2">
  <advance width="512"/>
  <unicode hex="02C7"/>
  <outline>
    <contour>
      <point x="217" y="724" type="line"/>
      <point x="278" y="724" type="line"/>
      <point x="331" y="625" type="line"/>
      <point x="426" y="724" type="line"/>
      <point x="492" y="724" type="line"/>
      <point x="351" y="577" type="line"/>
      <point x="294" y="577" type="line"/>
    </contour>
  </outline>
</glyph>
<glyph name="ring" format="2">
  <advance width="512"/>
  <unicode hex="02DA"/>
  <outline>
    <contour>
      <point x="249" y="626"/>
      <point x="249" y="666" type="qcurve" smooth="yes"/>
      <point x="249" y="707"/>
      <point x="301" y="760"/>
      <point x="342" y="760" type="qcurve" smooth="yes"/>
      <point x="382" y="760"/>
      <point x="435" y="707"/>
      <point x="435" y="666" type="qcurve" smooth="yes"/>
      <point x="435" y="626"/>
      <point x="382" y="572"/>
      <point x="342" y="572" type="qcurve" smooth="yes"/>
      <point x="301" y="572"/>
    </contour>
    <contour>
      <point x="394" y="642"/>
      <point x="394" y="666" type="qcurve" smooth="yes"/>
      <point x="394" y="690"/>
      <point x="365" y="721"/>
      <point x="342" y="721" type="qcurve" smooth="yes"/>
      <point x="319" y="721"/>
      <point x="289" y="689"/>
      <point x="289" y="666" type="qcurve" smooth="yes"/>
      <point x="289" y="642"/>
      <point x="319" y="611"/>
      <point x="342" y="611" type="qcurve" smooth="yes"/>
      <point x="365" y="611"/>
    </contour>
  </outline>
</glyph>
<glyph name="uni030A" format="2">
  <advance width="0"/>
  <unicode hex="030A"/>
  <anchor x="55" y="519" name="_Anchor-0"/>
  <outline>
    <contour>
      <point x="-7" y="626"/>
      <point x="-7" y="666" type="qcurve" smooth="yes"/>
      <point x="-7" y="707"/>
      <point x="45" y="760"/>
      <point x="86" y="760" type="qcurve" smooth="yes"/>
      <point x="126" y="760"/>
      <point x="179" y="707"/>
      <point x="179" y="666" type="qcurve" smooth="yes"/>
      <point x="179" y="626"/>
      <point x="126" y="572"/>
      <point x="86" y="572" type="qcurve" smooth="yes"/>
      <point x="45" y="572"/>
    </contour>
    <contour>
      <point x="139" y="642"/>
      <point x="139" y="666" type="qcurve" smooth="yes"/>
      <point x="139" y="690"/>
      <point x="109" y="721"/>
      <point x="86" y="721" type="qcurve" smooth="yes"/>
      <point x="63" y="721"/>
      <point x="33" y="689"/>
      <point x="33" y="666" type="qcurve" smooth="yes"/>
      <point x="33" y="642"/>
      <point x="63" y="611"/>
      <point x="86" y="611" type="qcurve" smooth="yes"/>
      <point x="109" y="611"/>
    </contour>
  </outline>
</glyph>
<glyph name="endash" format="2">
  <advance width="427"/>
  <unicode hex="2013"/>
  <outline>
    <contour>
      <point x="28" y="389" type="line"/>
      <point x="455" y="389" type="line"/>
      <point x="440" y="322" type="line"/>
      <point x="13" y="322" type="line"/>
    </contour>
  </outline>
</glyph>
<glyph name="quotedblleft" format="2">
  <advance width="320"/>
  <unicode hex="201C"/>
  <outline>
    <contour>
      <point x="171" y="486" type="line"/>
      <point x="103" y="486" type="line"/>
      <point x="139" y="658" type="line"/>
      <point x="223" y="722" type="line"/>
    </contour>
    <contour>
      <point x="312" y="486" type="line"/>
      <point x="245" y="486" type="line"/>
      <point x="281" y="658" type="line"/>
      <point x="365" y="722" type="line"/>
    </contour>
    <contour>
      <point x="176" y="707" type="move" smooth="yes"/>
    </contour>
  </outline>
</glyph>
<glyph name="quotedblright" format="2">
  <advance width="320"/>
  <unicode hex="201D"/>
  <outline>
    <contour>
      <point x="152" y="708" type="line"/>
      <point x="219" y="708" type="line"/>
      <point x="183" y="536" type="line"/>
      <point x="99" y="472" type="line"/>
    </contour>
    <contour>
      <point x="293" y="708" type="line"/>
      <point x="360" y="708" type="line"/>
      <point x="325" y="536" type="line"/>
      <point x="241" y="472" type="line"/>
    </contour>
  </outline>
</glyph>
<glyph name="daggerdbl" format="2">
  <advance width="539"/>
  <unicode hex="2021"/>
  <outline>
    <contour>
      <point x="337" y="393" type="line"/>
      <point x="288" y="161" type="line"/>
      <point x="442" y="161" type="line"/>
      <point x="428" y="93" type="line"/>
      <point x="273" y="93" type="line"/>
      <point x="220" y="-156" type="line"/>
      <point x="145" y="-156" type="line"/>
      <point x="199" y="93" type="line"/>
      <point x="42" y="93" type="line"/>
      <point x="56" y="161" type="line"/>
      <point x="213" y="161" type="line"/>
      <point x="262" y="393" type="line"/>
      <point x="105" y="393" type="line"/>
      <point x="120" y="461" type="line"/>
      <point x="276" y="461" type="line"/>
      <point x="329" y="707" type="line"/>
      <point x="403" y="707" type="line"/>
      <point x="351" y="461" type="line"/>
      <point x="506" y="461" type="line"/>
      <point x="492" y="393" type="line"/>
    </contour>
  </outline>
</glyph>
<glyph name="bullet" format="2">
  <advance width="489"/>
  <unicode hex="2022"/>
  <outline>
    <contour>
      <point x="131" y="261"/>
      <point x="131" y="315" type="qcurve" smooth="yes"/>
      <point x="131" y="369"/>
      <point x="203" y="440"/>
      <point x="257" y="440" type="qcurve" smooth="yes"/>
      <point x="311" y="440"/>
      <point x="382" y="370"/>
      <point x="382" y="315" type="qcurve" smooth="yes"/>
      <point x="382" y="261"/>
      <point x="311" y="190"/>
      <point x="257" y="190" type="qcurve" smooth="yes"/>
      <point x="203" y="190"/>
    </contour>
  </outline>
</glyph>
<glyph name="guilsinglleft" format="2">
  <advance width="302"/>
  <unicode hex="2039"/>
  <outline>
    <contour>
      <point x="28" y="270" type="line"/>
      <point x="270" y="473" type="line"/>
      <point x="253" y="388" type="line"/>
      <point x="112" y="270" type="line"/>
      <point x="203" y="153" type="line"/>
      <point x="184" y="68" type="line"/>
    </contour>
  </outline>
</glyph>
<glyph name="glyph249" format="2">
  <advance width="182"/>
  <outline>
    <contour>
      <point x="350" y="707" type="line"/>
      <point x="414" y="707" type="line"/>
      <point x="-119" y="0" type="line"/>
      <point x="-183" y="0" type="line"/>
    </contour>
  </outline>
</glyph>
<glyph name="zero.sups" format="2">
  <advance width="364"/>
  <outline>
    <contour>
      <point x="120" y="527" type="qcurve" smooth="yes"/>
      <point x="120" y="556"/>
      <point x="127" y="586" type="qcurve" smooth="yes"/>
      <point x="158" y="728" type="line" smooth="yes"/>
      <point x="173" y="801"/>
      <point x="248" y="874"/>
      <point x="309" y="874" type="qcurve" smooth="yes"/>
      <point x="411" y="874"/>
      <point x="412" y="783" type="qcurve" smooth="yes"/>
      <point x="412" y="758"/>
      <point x="406" y="728" type="qcurve" smooth="yes"/>
      <point x="376" y="586" type="line" smooth="yes"/>
      <point x="361" y="510"/>
      <point x="287" y="434"/>
      <point x="222" y="434" type="qcurve" smooth="yes"/>
      <point x="120" y="434"/>
    </contour>
    <contour>
      <point x="296" y="537"/>
      <point x="306" y="589" type="qcurve" smooth="yes"/>
      <point x="334" y="722" type="line" smooth="yes"/>
      <point x="341" y="758"/>
      <point x="341" y="772" type="qcurve" smooth="yes"/>
      <point x="341" y="794"/>
      <point x="321" y="814"/>
      <point x="298" y="814" type="qcurve" smooth="yes"/>
      <point x="267" y="814"/>
      <point x="237" y="772"/>
      <point x="226" y="722" type="qcurve" smooth="yes"/>
      <point x="198" y="589" type="line" smooth="yes"/>
      <point x="191" y="553"/>
      <point x="190" y="537" type="qcurve" smooth="yes"/>
      <point x="190" y="514"/>
      <point x="211" y="494"/>
      <point x="233" y="494" type="qcurve" smooth="yes"/>
      <point x="265" y="494"/>
    </contour>
  </outline>
</glyph>
